<svg id="图层_1" data-name="图层 1" xmlns="http://www.w3.org/2000/svg" xmlns:xlink="http://www.w3.org/1999/xlink" viewBox="0 0 292.6 89.68"><defs><style>.cls-1{fill:url(#未命名的渐变_163);}.cls-2{font-size:16px;fill:#231815;font-family:Arial-BoldMT, Arial;font-weight:700;}.cls-3{fill:none;stroke:#231815;}.cls-3,.cls-4{stroke-miterlimit:10;stroke-width:3px;}.cls-4{fill:#fff;stroke:#e60012;}.cls-5{fill:#006934;}.cls-6{fill:#1d2088;}</style><radialGradient id="未命名的渐变_163" cx="329.88" cy="10.97" r="78.4" gradientTransform="translate(-262.89 112.29) scale(1.7 0.64)" gradientUnits="userSpaceOnUse"><stop offset="0.05" stop-color="#fff"/><stop offset="0.34" stop-color="#fcfdfe"/><stop offset="0.53" stop-color="#f4f8fc"/><stop offset="0.68" stop-color="#e5eef8"/><stop offset="0.81" stop-color="#d1e1f3"/><stop offset="0.94" stop-color="#b7cfec"/><stop offset="1" stop-color="#a7c5e8"/></radialGradient></defs><path class="cls-1" d="M445.39,120.37c-4.36,29.39-84.72,47.81-162.85,43-64.78-4-160.63-30.89-119.69-54.3,39-22.28,35.91-26.08,114.62-33C355.25,69.15,450.63,85,445.39,120.37Z" transform="translate(-153 -74.46)"/><text class="cls-2" transform="translate(108.44 30.71)">HBDrug3D</text><line class="cls-3" x1="149.26" y1="54.42" x2="149.26" y2="39.95"/><line class="cls-3" x1="218.53" y1="17.39" x2="231.39" y2="17.39"/><line class="cls-3" x1="218.35" y1="28.27" x2="219.98" y2="16.12"/><line class="cls-3" x1="78.78" y1="52.41" x2="71.87" y2="27.49"/><path class="cls-4" d="M349.41,129.16c.1-3.85-6,2.47-14.85-.38-8.75-6.77-21,6.15-32.67-.82-12,4.33-23.43-13.75-32.67-.83-9.12,7.91-14.93,2.85-14.85-.37" transform="translate(-153 -74.46)"/><path class="cls-5" d="M379.07,142.58c-6.33,9.65-15.19,12.64-21.23,10.83-9.85-3.32-18.45-12.62-10.9-29.08,7.41-15.19,22.66-24.42,35.47-27.18,10.43-1.8,24.29-3.77,21,10.37-3.66,22.19-23.56,22.35-34.6,19.52-.2,6.78,5.31,8.19,7.59,12.5C377.31,140.65,378.22,141.66,379.07,142.58Z" transform="translate(-153 -74.46)"/><path class="cls-6" d="M202.66,123c21.8-12.28,62.09-16.36,54.29,10.52-7.3,21.21-39.66,10.45-56.14.61C197.57,130.66,198,126.64,202.66,123Z" transform="translate(-153 -74.46)"/><line class="cls-3" x1="58.86" y1="28.54" x2="73.31" y2="28.54"/></svg>